<mxfile host="65bd71144e">
    <diagram id="4Uv2o4vZGW4UFiv2zaCQ" name="Page-1">
        <mxGraphModel dx="1456" dy="556" grid="1" gridSize="10" guides="1" tooltips="1" connect="1" arrows="1" fold="1" page="1" pageScale="1" pageWidth="827" pageHeight="1169" math="0" shadow="0">
            <root>
                <mxCell id="0"/>
                <mxCell id="1" parent="0"/>
                <mxCell id="2" value="" style="whiteSpace=wrap;html=1;aspect=fixed;" parent="1" vertex="1">
                    <mxGeometry x="70" y="30" width="640" height="640" as="geometry"/>
                </mxCell>
                <mxCell id="3" value="" style="rounded=1;whiteSpace=wrap;html=1;align=left;" parent="1" vertex="1">
                    <mxGeometry x="80" y="40" width="620" height="60" as="geometry"/>
                </mxCell>
                <mxCell id="4" value="logo" style="ellipse;whiteSpace=wrap;html=1;aspect=fixed;" parent="1" vertex="1">
                    <mxGeometry x="90" y="55" width="30" height="30" as="geometry"/>
                </mxCell>
                <mxCell id="6" value="Description/Utilisation du site (img/vidéo)" style="rounded=1;whiteSpace=wrap;html=1;" parent="1" vertex="1">
                    <mxGeometry x="80" y="110" width="620" height="140" as="geometry"/>
                </mxCell>
                <mxCell id="7" value="++++++&lt;br&gt;Créé un nouvel event" style="rounded=0;whiteSpace=wrap;html=1;" parent="1" vertex="1">
                    <mxGeometry x="330" y="280" width="120" height="60" as="geometry"/>
                </mxCell>
                <mxCell id="8" value="(lien) nom de l'event, date, autheur" style="rounded=1;whiteSpace=wrap;html=1;" parent="1" vertex="1">
                    <mxGeometry x="80" y="390" width="610" height="60" as="geometry"/>
                </mxCell>
                <mxCell id="11" value="Event en cours/ a venir" style="text;html=1;strokeColor=none;fillColor=none;align=center;verticalAlign=middle;whiteSpace=wrap;rounded=0;" parent="1" vertex="1">
                    <mxGeometry x="90" y="350" width="160" height="30" as="geometry"/>
                </mxCell>
                <mxCell id="12" value="footer" style="rounded=0;whiteSpace=wrap;html=1;" parent="1" vertex="1">
                    <mxGeometry x="80" y="630" width="610" height="30" as="geometry"/>
                </mxCell>
                <mxCell id="13" value="connexion&lt;br&gt;/&lt;br&gt;Deconnexion" style="rounded=1;whiteSpace=wrap;html=1;" vertex="1" parent="1">
                    <mxGeometry x="610" y="47.5" width="70" height="45" as="geometry"/>
                </mxCell>
                <mxCell id="14" value="inscription&lt;br&gt;/&lt;br&gt;profil" style="rounded=1;whiteSpace=wrap;html=1;" vertex="1" parent="1">
                    <mxGeometry x="510" y="45" width="90" height="50" as="geometry"/>
                </mxCell>
                <mxCell id="15" value="nom du site" style="rounded=1;whiteSpace=wrap;html=1;align=left;" vertex="1" parent="1">
                    <mxGeometry x="130" y="47.5" width="200" height="42.5" as="geometry"/>
                </mxCell>
                <mxCell id="17" value="(lien) nom de l'event, date, autheur" style="rounded=1;whiteSpace=wrap;html=1;" vertex="1" parent="1">
                    <mxGeometry x="80" y="525" width="610" height="60" as="geometry"/>
                </mxCell>
                <mxCell id="18" value="(lien) nom de l'event, date, autheur" style="rounded=1;whiteSpace=wrap;html=1;" vertex="1" parent="1">
                    <mxGeometry x="80" y="460" width="610" height="60" as="geometry"/>
                </mxCell>
            </root>
        </mxGraphModel>
    </diagram>
</mxfile>